PathFileType	4	(X/Y/Z)	/Users/itak/Documents/Research/Walk-IL/dataset/trc/00304_00010.trc
DataRate	CameraRate	NumFrames	NumMarkers	Units	OrigDataRate	OrigDataStartFrame	OrigNumFrames
100.000000	100.000000	4	56	mm	100.000000	270	540
Frame#	Time	RPSI			L3			STRN			T10			C7			CLAV			RBAK			LBAK			LSHO			LUPA			LAEL			LAOL			LWTS			LWPS			LFRA			LIFD			LHPS			LHTS			RSHO			RUPA			RAEL			RAOL			RWTS			RWPS			RFRA			RIFD			RHPS			RBHD			LFHD			RFHD			LBHD			LHIP			RHIP			RASI			LASI			LKNE			LTHI			LANK			LTIP			LTOE			LMT1			LMT5			LHEE			RKNE			RTHI			RANK			RTIP			RTOE			RMT1			RMT5			LPSI			RHEE			RHTS			*53			*54			*55			
		X1	Y1	Z1	X2	Y2	Z2	X3	Y3	Z3	X4	Y4	Z4	X5	Y5	Z5	X6	Y6	Z6	X7	Y7	Z7	X8	Y8	Z8	X9	Y9	Z9	X10	Y10	Z10	X11	Y11	Z11	X12	Y12	Z12	X13	Y13	Z13	X14	Y14	Z14	X15	Y15	Z15	X16	Y16	Z16	X17	Y17	Z17	X18	Y18	Z18	X19	Y19	Z19	X20	Y20	Z20	X21	Y21	Z21	X22	Y22	Z22	X23	Y23	Z23	X24	Y24	Z24	X25	Y25	Z25	X26	Y26	Z26	X27	Y27	Z27	X28	Y28	Z28	X29	Y29	Z29	X30	Y30	Z30	X31	Y31	Z31	X32	Y32	Z32	X33	Y33	Z33	X34	Y34	Z34	X35	Y35	Z35	X36	Y36	Z36	X37	Y37	Z37	X38	Y38	Z38	X39	Y39	Z39	X40	Y40	Z40	X41	Y41	Z41	X42	Y42	Z42	X43	Y43	Z43	X44	Y44	Z44	X45	Y45	Z45	X46	Y46	Z46	X47	Y47	Z47	X48	Y48	Z48	X49	Y49	Z49	X50	Y50	Z50	X51	Y51	Z51	X52	Y52	Z52	X53	Y53	Z53	X54	Y54	Z54	X55	Y55	Z55	X56	Y56	Z56	

271	2.7	-436.813232421875	958.2626342773438	692.8912353515625	-467.9313049316406	1025.384399414062	590.746337890625	-235.3923492431641	1203.506591796875	497.2068481445312	-484.4598083496094	1142.2353515625	583.1788940429688	-445.7016296386719	1388.233520507812	546.9290161132812	-296.1190490722656	1303.168212890625	510.6331481933594	-472.4131164550781	1250.841918945312	635.5716552734375	-492.8761291503906	1347.5517578125	450.6967468261719	-420.6150817871094	1350.047607421875	375.4224853515625	-454.7110595703125	1227.042358398438	313.5530395507812	-401.1070556640625	1037.762084960938	296.4209289550781	-456.0063171386719	998.0927734375	352.3585815429688	-203.7476043701172	934.6674194335938	340.7321166992188	-217.2248840332031	902.6554565429688	276.703125	-333.3003234863281	970.4882202148438	285.1719360351562	-62.72599792480469	816.9345703125	338.9928894042969	-148.0602569580078	847.1512451171875	279.8504943847656	-114.9011077880859	888.3230590820312	319.9761657714844	-336.4850463867188	1367.396118164062	680.8912353515625	-329.8579406738281	1315.7890625	749.7899780273438	-376.3838806152344	1065.926513671875	830.3831787109375	-410.890869140625	1047.237426757812	742.1442260742188	-293.6708374023438	830.7390747070312	814.01806640625	-337.5462341308594	840.3361206054688	886.2526245117188	-359.328857421875	999.0708618164062	853.5364990234375	-306.792236328125	648.0283813476562	839.6943359375	-323.6480102539062	728.8436889648438	900.358642578125	-378.2728576660156	1553.246459960938	609.4691162109375	-295.0235900878906	1580.542236328125	414.7659301757812	-247.6508178710938	1583.3916015625	494.5763549804688	-453.3816833496094	1538.58837890625	482.5880126953125	-476.6603698730469	904.8134765625	414.8602600097656	-298.4252624511719	917.9951171875	747.1587524414062	-223.8228454589844	925.5671997070312	630.9562377929688	-327.6909790039062	911.455322265625	401.3953247070312	-480.2500610351562	453.9755859375	477.7020568847656	-463.4809265136719	590.9368286132812	436.0598754882812	-704.6754150390625	76.12983703613281	577.7225341796875	-594.2498779296875	253.5379791259766	521.8900146484375	-503.2272644042969	37.53363418579102	634.6251831054688	-574.171142578125	36.14800643920898	674.310302734375	-585.7694091796875	48.40503311157227	564.0245361328125	-750.1025390625	88.46054077148438	637.1017456054688	-125.6155853271484	490.6064453125	637.5422973632812	-193.3063354492188	729.7018432617188	702.8897705078125	-49.02946090698242	41.38361740112305	628.7697143554688	-82.50266265869141	374.9861145019531	610.8499755859375	37.74667358398438	72.52898406982422	451.5498352050781	-27.9593334197998	56.26141738891602	464.2567138671875	34.8004150390625	42.83613586425781	563.1840209960938	-502.4394836425781	954.02099609375	529.759521484375	-120.3222579956055	33.08292007446289	631.2180786132812	-274.2830810546875	716.6388549804688	850.0657348632812	nan	nan	nan	nan	nan	nan	nan	nan	nan	
272	2.71	-426.4475708007812	959.9996948242188	690.7160034179688	-456.9783630371094	1025.816162109375	588.1796875	-225.5930023193359	1204.543823242188	494.70556640625	-474.382568359375	1142.258178710938	581.1449584960938	-436.4491882324219	1388.3935546875	545.2863159179688	-286.6838989257812	1304.004272460938	508.4045104980469	-462.4512939453125	1250.7177734375	633.6973876953125	-483.7726135253906	1347.67724609375	449.1773986816406	-411.8787231445312	1350.597900390625	373.5479125976562	-446.8713684082031	1227.609985351562	311.911376953125	-395.1905822753906	1037.704711914062	294.466552734375	-449.9481811523438	998.9692993164062	351.1466064453125	-199.5312347412109	929.7462158203125	337.4710998535156	-214.1337890625	898.651123046875	273.3360595703125	-328.4686584472656	968.9509887695312	282.731201171875	-61.84110641479492	808.1471557617188	333.7214965820312	-146.5984191894531	841.3306274414062	275.4888305664062	-111.9630966186523	881.1299438476562	315.7587280273438	-326.8727416992188	1367.67431640625	678.96044921875	-319.7996520996094	1315.804931640625	747.708740234375	-364.6493530273438	1065.28515625	827.470458984375	-399.6255493164062	1046.919799804688	739.3814086914062	-283.0525817871094	829.7803344726562	810.2611083984375	-326.4863586425781	839.52197265625	882.706787109375	-347.5958557128906	998.4066772460938	850.3597412109375	-297.0473022460938	647.2218627929688	835.7442626953125	-313.2826843261719	727.9318237304688	896.574951171875	-368.8123779296875	1553.796142578125	607.9685668945312	-286.8804626464844	1581.392944335938	412.74560546875	-238.9539947509766	1584.218383789062	492.2563781738281	-444.7234497070312	1539.14111328125	481.5628051757812	-466.0696716308594	904.5316162109375	412.8674621582031	-287.9747924804688	920.321533203125	745.0396118164062	-213.3819427490234	927.0193481445312	628.749755859375	-317.6004943847656	911.23681640625	399.0878601074219	-471.6372985839844	454.1482238769531	475.9694213867188	-454.1114196777344	590.9513549804688	434.4501342773438	-702.71630859375	79.89768218994141	576.5958251953125	-588.9602661132812	255.6461181640625	520.3816528320312	-503.1092834472656	37.50215911865234	634.580078125	-573.5795288085938	37.16524505615234	674.065673828125	-584.6654663085938	48.58827590942383	563.5421142578125	-747.8660278320312	94.16075897216797	635.6787109375	-116.3478851318359	491.7056884765625	633.1118774414062	-182.6180877685547	731.3429565429688	699.2387084960938	-47.83040237426758	41.04034042358398	628.2582397460938	-75.19026947021484	375.06884765625	606.751953125	38.44175720214844	67.78804016113281	449.961669921875	-27.5258731842041	53.14386749267578	463.275146484375	35.52006530761719	39.691162109375	562.05029296875	-491.837646484375	954.5186157226562	527.4168090820312	-119.286506652832	34.13679504394531	631.1941528320312	-264.3234558105469	715.4818725585938	846.025146484375	nan	nan	nan	nan	nan	nan	nan	nan	nan	
273	2.72	-416.0942687988281	961.9895629882812	688.3433227539062	-445.9590148925781	1026.608642578125	585.4144287109375	-215.6690673828125	1205.953979492188	492.1716918945312	-464.3573608398438	1142.654541015625	579.0379638671875	-427.1189575195312	1388.8447265625	543.5435791015625	-277.1705322265625	1305.1923828125	506.1297607421875	-452.4567565917969	1250.929321289062	631.7269287109375	-474.5567016601562	1348.1357421875	447.5513610839844	-403.0182495117188	1351.493774414062	371.5947265625	-438.9471740722656	1228.545288085938	310.2052612304688	-389.281982421875	1037.957763671875	292.5780029296875	-443.8143920898438	1000.302978515625	350.1316833496094	-195.6648712158203	924.5299682617188	334.21923828125	-211.4957122802734	894.5317993164062	269.9617919921875	-323.8155212402344	967.5738525390625	280.3401489257812	-61.93907165527344	798.6494140625	328.1855773925781	-145.8537902832031	835.1954345703125	271.0097045898438	-109.6794281005859	873.3720703125	311.4803466796875	-317.2360229492188	1368.284912109375	676.9635009765625	-309.7002563476562	1316.129760742188	745.5479736328125	-352.5611267089844	1064.874145507812	824.3787231445312	-388.0759582519531	1046.862182617188	736.468505859375	-272.038818359375	829.0736694335938	806.2029418945312	-314.9765319824219	838.9619750976562	878.9012451171875	-335.4633483886719	997.9942626953125	846.9609375	-287.0368347167969	646.6431884765625	831.5034790039062	-302.4761657714844	727.2637939453125	892.5169677734375	-359.2881774902344	1554.58935546875	606.4512939453125	-278.7700500488281	1582.59521484375	410.6940307617188	-230.2567443847656	1585.391235351562	489.8858642578125	-436.0493469238281	1539.944091796875	480.5367431640625	-455.3303833007812	904.4959716796875	410.680908203125	-277.4863586425781	923.021240234375	742.7923583984375	-202.8420257568359	928.8875732421875	626.4921875	-307.3552856445312	911.2881469726562	396.8121643066406	-462.3382873535156	454.36181640625	473.9580688476562	-444.2144775390625	591.0477294921875	432.6558837890625	-700.3897705078125	84.03936767578125	575.40380859375	-583.1884765625	257.9301147460938	518.6436767578125	-502.9878845214844	37.47776412963867	634.526123046875	-572.8851928710938	38.3199577331543	673.7940063476562	-583.431884765625	48.80263900756836	562.9996948242188	-745.1183471679688	100.4346618652344	634.1657104492188	-107.1279830932617	492.9065551757812	628.8837280273438	-171.8856658935547	733.4456787109375	695.4453125	-46.83714294433594	40.80261993408203	628.003173828125	-68.03734588623047	375.2357177734375	602.9818725585938	39.54433822631836	63.85259628295898	449.1104431152344	-26.73734855651855	50.81889724731445	462.7794799804688	36.24659729003906	37.09315872192383	561.6119384765625	-481.1405639648438	955.2329711914062	524.87060546875	-118.3982467651367	35.09872817993164	631.20263671875	-254.0314788818359	714.5596923828125	841.6536254882812	nan	nan	nan	nan	nan	nan	nan	nan	nan	
274	2.73	-405.7200622558594	964.1246948242188	685.80517578125	-434.9302673339844	1027.706420898438	582.5106811523438	-205.6423034667969	1207.686401367188	489.6006774902344	-454.3947143554688	1143.403198242188	576.8636474609375	-417.7181396484375	1389.578491210938	541.7039184570312	-267.5894775390625	1306.692016601562	503.8054504394531	-442.4393615722656	1251.464477539062	629.66943359375	-465.2391052246094	1348.921020507812	445.8209533691406	-394.03466796875	1352.71630859375	369.5697631835938	-430.9362487792969	1229.843872070312	308.4165954589844	-383.3765869140625	1038.519165039062	290.7555847167969	-437.5964965820312	1002.077941894531	349.305419921875	-192.1586456298828	919.0980834960938	330.9918823242188	-209.3113403320312	890.3565673828125	266.6047973632812	-319.3526611328125	966.3767700195312	278.0039367675781	-63.06040573120117	788.5924682617188	322.4536437988281	-145.8289794921875	828.838623046875	266.461669921875	-108.0823211669922	865.1497192382812	307.1692810058594	-307.565673828125	1369.204223632812	674.8922729492188	-299.55712890625	1316.7509765625	743.3055419921875	-340.1597290039062	1064.699340820312	821.1185302734375	-376.2909240722656	1047.063232421875	733.4202270507812	-260.6265869140625	828.6384887695312	801.8331298828125	-303.0088195800781	838.6640014648438	874.8300170898438	-322.9643249511719	997.836669921875	843.3457641601562	-276.7434692382812	646.29931640625	826.9530639648438	-291.1926574707031	726.8524169921875	888.1751708984375	-349.7044982910156	1555.583984375	604.91455078125	-270.7010803222656	1584.127075195312	408.6133728027344	-221.57470703125	1586.886474609375	487.4675598144531	-427.3641967773438	1540.958740234375	479.5055847167969	-444.5330810546875	904.7053833007812	408.3437194824219	-266.9237670898438	925.9287109375	740.4140625	-192.2147521972656	931.0872192382812	624.1497192382812	-297.0158996582031	911.612060546875	394.570556640625	-452.2880554199219	454.5564270019531	471.6018981933594	-433.8005676269531	591.19482421875	430.6346130371094	-697.63671875	88.56903839111328	574.2118530273438	-576.8991088867188	260.3848571777344	516.6620483398438	-502.8674621582031	37.45831298828125	634.459228515625	-572.0505981445312	39.61587524414062	673.5068969726562	-582.0565795898438	49.05396270751953	562.414306640625	-741.7377319335938	107.3116149902344	632.6341552734375	-98.05966186523438	494.0687866210938	624.9664306640625	-161.1262359619141	735.8707885742188	691.5744018554688	-45.9927864074707	40.58511352539062	627.9324951171875	-61.08219909667969	375.3829345703125	599.6275024414062	40.97347640991211	60.65707397460938	448.8548889160156	-25.66554832458496	49.20867919921875	462.6791381835938	36.99284362792969	34.96757507324219	561.7160034179688	-470.4031677246094	956.1343994140625	522.182861328125	-117.6200332641602	35.93274688720703	631.2445678710938	-243.3672485351562	713.8920288085938	836.9384155273438	nan	nan	nan	nan	nan	nan	nan	nan	nan	
